<mxfile host="65bd71144e">
    <diagram id="C5rDnz10_f9K-UTjnm8k" name="Page-1">
        <mxGraphModel dx="693" dy="606" grid="1" gridSize="10" guides="1" tooltips="1" connect="1" arrows="1" fold="1" page="1" pageScale="1" pageWidth="850" pageHeight="1100" math="0" shadow="0">
            <root>
                <mxCell id="0"/>
                <mxCell id="1" parent="0"/>
                <mxCell id="2" value="" style="whiteSpace=wrap;html=1;aspect=fixed;" parent="1" vertex="1">
                    <mxGeometry x="130" y="90" width="320" height="320" as="geometry"/>
                </mxCell>
                <mxCell id="3" value="Search for Title:" style="text;html=1;strokeColor=none;fillColor=none;align=center;verticalAlign=middle;whiteSpace=wrap;rounded=0;" parent="1" vertex="1">
                    <mxGeometry x="130" y="110" width="110" height="30" as="geometry"/>
                </mxCell>
                <mxCell id="4" value="Classic Egypt" style="rounded=0;whiteSpace=wrap;html=1;align=left;" parent="1" vertex="1">
                    <mxGeometry x="235" y="115" width="90" height="25" as="geometry"/>
                </mxCell>
                <mxCell id="5" value="&lt;h1 style=&quot;font-size: 13px;&quot;&gt;&lt;font style=&quot;font-weight: normal; font-size: 13px;&quot;&gt;The summary for Egypt and the Classical World by Jeffrey Spier is:&lt;/font&gt;&lt;/h1&gt;&lt;h1 style=&quot;font-size: 13px;&quot;&gt;&lt;font style=&quot;font-weight: normal; font-size: 13px;&quot;&gt;Presenting dynamic research, this publication explores two millennia of cultural interactions between Egypt, Greece, and Rome. From Mycenaean weaponry found among the cargo of a Bronze Age shipwreck off the Turkish coast to the Egyptian-inspired domestic interiors of a luxury villa built in Greece during the Roman Empire, Egypt and the Classical World documents two millennia of cultural and artistic interconnectedness in the ancient Mediterranean. This volume gathers pioneering research from the Getty scholars' symposium that helped shape the major international loan exhibition Beyond the Nile: Egypt and the Classical World (J. Paul Getty Museum, 2018). Generously illustrated essays consider a range of artistic and other material evidence, including archaeological finds, artworks, papyri, and inscriptions, to shed light on cultural interactions between Egypt, Greece, and Rome from the Bronze Age to the Late Period and Ptolemaic dynasty to the Roman Empire. &lt;font style=&quot;font-size: 13px;&quot;&gt;7&lt;/font&gt;&lt;/font&gt;&lt;/h1&gt;" style="text;html=1;strokeColor=default;fillColor=none;spacing=5;spacingTop=-20;whiteSpace=wrap;overflow=hidden;rounded=0;" parent="1" vertex="1">
                    <mxGeometry x="140" y="150" width="260" height="240" as="geometry"/>
                </mxCell>
                <mxCell id="10" value="" style="shape=flexArrow;endArrow=classic;startArrow=classic;html=1;fontSize=13;width=19;endSize=3.11;startSize=3.11;" parent="1" edge="1">
                    <mxGeometry width="100" height="100" relative="1" as="geometry">
                        <mxPoint x="420" y="389" as="sourcePoint"/>
                        <mxPoint x="420" y="151" as="targetPoint"/>
                    </mxGeometry>
                </mxCell>
                <mxCell id="12" value="Get Started" style="rounded=1;whiteSpace=wrap;html=1;strokeColor=default;fontSize=13;" parent="1" vertex="1">
                    <mxGeometry x="350" y="112.5" width="90" height="27.5" as="geometry"/>
                </mxCell>
                <mxCell id="13" value="" style="endArrow=none;html=1;fontSize=13;" parent="1" edge="1">
                    <mxGeometry width="50" height="50" relative="1" as="geometry">
                        <mxPoint x="230" y="440" as="sourcePoint"/>
                        <mxPoint x="230" y="40" as="targetPoint"/>
                    </mxGeometry>
                </mxCell>
                <mxCell id="14" value="" style="endArrow=none;html=1;fontSize=13;" parent="1" edge="1">
                    <mxGeometry width="50" height="50" relative="1" as="geometry">
                        <mxPoint x="335" y="440" as="sourcePoint"/>
                        <mxPoint x="335" y="40" as="targetPoint"/>
                    </mxGeometry>
                </mxCell>
                <mxCell id="15" value="Col 0" style="text;html=1;strokeColor=none;fillColor=none;align=center;verticalAlign=middle;whiteSpace=wrap;rounded=0;fontSize=13;" parent="1" vertex="1">
                    <mxGeometry x="140" y="40" width="60" height="30" as="geometry"/>
                </mxCell>
                <mxCell id="16" value="Col1" style="text;html=1;strokeColor=none;fillColor=none;align=center;verticalAlign=middle;whiteSpace=wrap;rounded=0;fontSize=13;" parent="1" vertex="1">
                    <mxGeometry x="240" y="40" width="60" height="30" as="geometry"/>
                </mxCell>
                <mxCell id="17" value="Col2" style="text;html=1;strokeColor=none;fillColor=none;align=center;verticalAlign=middle;whiteSpace=wrap;rounded=0;fontSize=13;" parent="1" vertex="1">
                    <mxGeometry x="350" y="40" width="60" height="30" as="geometry"/>
                </mxCell>
                <mxCell id="18" value="Row 0" style="text;html=1;strokeColor=none;fillColor=none;align=center;verticalAlign=middle;whiteSpace=wrap;rounded=0;fontSize=13;" vertex="1" parent="1">
                    <mxGeometry x="510" y="111.25" width="60" height="30" as="geometry"/>
                </mxCell>
                <mxCell id="19" value="Row 1" style="text;html=1;strokeColor=none;fillColor=none;align=center;verticalAlign=middle;whiteSpace=wrap;rounded=0;fontSize=13;" vertex="1" parent="1">
                    <mxGeometry x="510" y="255" width="60" height="30" as="geometry"/>
                </mxCell>
            </root>
        </mxGraphModel>
    </diagram>
</mxfile>